<svg xmlns="http://www.w3.org/2000/svg" version="1.1" xmlns:xlink="http://www.w3.org/1999/xlink" viewBox="0 0 11.248271604507849 11.263053975559412"><g transform="matrix(0.8571428571428572,0,0,0.8571428571428572,3.6516122982736707,3.66010410527864)"><rect width="13.137765909644052" height="13.137765909644052" x="-4.26760553351173" y="-4.268889591904117" fill="#ffffff"></rect><g><path d=" M -1.820167012671379 1.6397065949474927 L -1.6038332428343376 1.5700524491405559 L -1.591778125448596 1.4738044665912267 L -2.326866332173155 1.7102813752619723 L -2.3330803102070425 1.759893737400802 L -1.675293990224042 2.1405946137370955 L -1.6695771304328657 2.0949512405693724 L -1.8630434611052016 1.9820318937054164 L -1.820167012671379 1.6397065949474927 M -1.8674280093705582 1.6549512068153027 L -1.905333275377271 1.9575866158621626 L -2.2218243394553863 1.772820800953933 L -2.2213272212126753 1.7688518119828267 L -1.8674280093705582 1.6549512068153027 M -2.1899010555289253 0.9952166329638693 L -2.213358205614786 1.0590426629974645 L -1.5563255435042473 1.3005133256460328 L -1.5411473875663373 1.2592141297419417 L -2.077098316230791 1.0622430606386097 L -2.0757184838727993 1.0584885882836923 L -1.4219120884887253 0.9695661650436335 L -1.4157028428777623 0.9526710394465053 L -1.850155959970697 0.4563369895887178 L -1.8487761276127053 0.4525825172338005 L -1.3165796713031688 0.6481737539791408 L -1.2851884851588549 0.5627595079047708 L -1.9422211472693935 0.3212888452562026 L -1.9660232554447523 0.3860534933785271 L -1.5136802051157559 0.8974855659151042 L -1.5150600374737477 0.9012400382700216 L -2.1899010555289253 0.9952166329638693 M -1.7395452749246256 -0.03949840546215888 L -1.1477355652344874 0.33434817739834344 L -0.9063374860159916 -0.047791806573002915 L -0.9528368203487882 -0.07716546665489954 L -1.1456348437954187 0.2280392550567288 L -1.3933494794228622 0.0715577568022614 L -1.227788849870354 -0.19052940034622834 L -1.2666792022214204 -0.21509646150563277 L -1.4322398317739284 0.04699069564285696 L -1.6444458848199637 -0.08706000763998034 L -1.4516478613733332 -0.3922647293516086 L -1.4981471957061299 -0.4216383894335052 L -1.7395452749246256 -0.03949840546215888 M -1.3171754032966356 -0.6553379695117049 L -0.7982696549230487 -0.18551159274593865 L -0.7371922259434991 -0.25296934003450494 L -0.9662520491541253 -0.46036412634967894 L -0.9367201054717057 -0.4929810591045901 Q -0.917927050401075 -0.5137372890395335 -0.9018037408124542 -0.5240953239839372 Q -0.8856804312238333 -0.5344533589283408 -0.8667171960353054 -0.5375186013632187 Q -0.8477539608467775 -0.5405838437980968 -0.8249440292509873 -0.5374682346128211 Q -0.8021340976551972 -0.5343526254275456 -0.7692966180319911 -0.5289028610293786 L -0.6295419661402695 -0.5089369582292624 Q -0.6024244977630138 -0.5046192147435355 -0.5786077953598683 -0.5026155464476318 Q -0.554791092956723 -0.5006118781517283 -0.5333735558023494 -0.5041529376317471 Q -0.5119560186479759 -0.5076939971117658 -0.4915952856659007 -0.5182623722202029 Q -0.47123455268382547 -0.52883074732864 -0.45109913653672123 -0.5510695651160795 Q -0.4363331646955114 -0.567378031493535 -0.42841922501269203 -0.5790985075374804 Q -0.4205052853298727 -0.5908189835814257 -0.4170391092045412 -0.606566542854792 L -0.4444669844757165 -0.6314002227695539 Q -0.4470815932406526 -0.6270225726000772 -0.45006684896871263 -0.6229805126997189 Q -0.4530521046967727 -0.6189384527993607 -0.4564080073879567 -0.6152319831681207 Q -0.4705027986909297 -0.5996648107169131 -0.48568945086020654 -0.5918311911263663 Q -0.5008761030294834 -0.5839975715358194 -0.5187975107166505 -0.5813380327580709 Q -0.5367189184038177 -0.5786784939803225 -0.5576756151839878 -0.5801161518200061 Q -0.578632311964158 -0.5815538096596897 -0.6035960119506809 -0.5852704859951909 Q -0.6770045240577538 -0.595078153925221 -0.7194989047452517 -0.6025264832671611 Q -0.7619932854327496 -0.609974812609101 -0.7858801012239062 -0.6133909553694894 Q -0.8097669170150628 -0.6168070981298779 -0.8221435969263075 -0.6165467246009013 Q -0.8345202768375521 -0.6162863510719248 -0.8470222068538817 -0.6114179071863698 L -0.8574404818674897 -0.607360870615074 L -0.8604056575724817 -0.6100455927680213 Q -0.8304128735158588 -0.6476412428426348 -0.8206004356191525 -0.6852971329864528 Q -0.8107879977224463 -0.7229530231302707 -0.8160369618899319 -0.7573833640401201 Q -0.8212859260574177 -0.7918137049499695 -0.837924879351861 -0.8203688311669088 Q -0.8545638326463043 -0.8489239573838481 -0.8768026504337437 -0.8690593735309523 Q -0.8968175864424393 -0.8871812480633462 -0.9275863877338612 -0.9008754390613203 Q -0.958355189025283 -0.9145696300592944 -0.9958558757221412 -0.914124099741483 Q -1.0333565624189993 -0.9136785694236718 -1.0766024437370065 -0.8934784766261415 Q -1.1198483250550137 -0.8732783838286113 -1.16481742111688 -0.8236116907699966 L -1.3171754032966356 -0.6553379695117049 M -1.2234810415621746 -0.6932637731178516 L -1.155691807200257 -0.7681344596688977 Q -1.1301869467472583 -0.796303628866321 -1.1015617071423078 -0.8115301076962795 Q -1.0729364675373574 -0.8267565865262381 -1.043715264134312 -0.8299770324080759 Q -1.0144940607312667 -0.8331974782899136 -0.9867605485328477 -0.8236004839093716 Q -0.959027036334429 -0.8140034895288295 -0.9353056306944936 -0.7925257123052517 Q -0.9152906946857982 -0.7744038377728578 -0.9019525073654651 -0.7481627867457418 Q -0.8886143200451321 -0.7219217357186258 -0.8860299980075255 -0.6912530011570899 Q -0.8834456759699189 -0.6605842665955541 -0.8935385674186698 -0.6285782743096754 Q -0.9036314588674208 -0.5965722820237966 -0.9304786803968931 -0.5669205249738773 L -0.9996102758352844 -0.4905672505703353 L -1.2234810415621746 -0.6932637731178516 M -0.6909692770262074 -1.2806157901540085 L -0.24719538955826853 -0.7392612512411136 L -0.17681929949959216 -0.7969518566119457 L -0.620593186967531 -1.3383063955248407 L -0.6909692770262074 -1.2806157901540085 M 0.5049026471641913 -1.3951763981789398 Q 0.46585452265742877 -1.2606578345064698 0.3452869021826802 -1.1894999193244116 Q 0.27811351363246317 -1.1498547951515505 0.2127183640724597 -1.1426108725936557 Q 0.14732321451245625 -1.1353669500357608 0.09000313592543796 -1.153789995136342 Q 0.03268305733841963 -1.1722130402369229 -0.014959465629250254 -1.212604128428194 Q -0.06260198859692012 -1.2529952166194653 -0.09513132125157533 -1.3081118431222076 Q -0.1296937371971465 -1.366673258781371 -0.13989529696556935 -1.4262587283044965 Q -0.1500968567339922 -1.4858441978276218 -0.1373492661907722 -1.5409758487673715 Q -0.12460167564755215 -1.5961074997071214 -0.0902178496031828 -1.6431075263725452 Q -0.055834023558813506 -1.690107553037969 -0.0015785943451766538 -1.722128614869895 Q 0.0354528890863533 -1.7439842602472417 0.07110810107688292 -1.7534159015630673 Q 0.10676331306741266 -1.7628475428788928 0.13857857168147347 -1.7630458338782544 Q 0.1703938302955343 -1.763244124877616 0.19588433472082206 -1.7544843198487137 Q 0.22137483914611 -1.7457245148198113 0.2380769074471561 -1.731197267507702 L 0.3018055068409518 -1.7688093083896472 Q 0.27160633953158597 -1.790465953878294 0.23662834937846972 -1.8034963109282178 Q 0.2016503592253534 -1.8165266679781418 0.1608347668293575 -1.8168223322538395 Q 0.12001917443336169 -1.8171179965295372 0.0734436519726625 -1.8035636353305389 Q 0.026868129511963323 -1.7900092741315405 -0.02480370783435748 -1.7595130247678015 Q -0.09972787198652266 -1.7152934631903793 -0.14859670758933022 -1.6574221671376232 Q -0.19746554319213783 -1.599550871084867 -0.21775201167961258 -1.5335833851822898 Q -0.23803848016708734 -1.4676158992797128 -0.22886026537328835 -1.396975893806901 Q -0.21968205057948936 -1.3263358883340892 -0.17851211393844135 -1.2565789079165561 Q -0.14293315634741222 -1.1962950976791817 -0.08975620763106422 -1.1504615714650785 Q -0.03657925891471624 -1.1046280452509751 0.030072961043777935 -1.0841651135303123 Q 0.09672518100227209 -1.0637021818096493 0.1756031140229255 -1.073678237262047 Q 0.25448104704357893 -1.0836542927144446 0.3414619732432189 -1.1349896458100723 Q 0.39657859974596116 -1.1675189784647275 0.4339698129730333 -1.2035210224818056 Q 0.47136102620010545 -1.2395230664988837 0.49476118514379874 -1.2736541749105643 Q 0.5181613440874919 -1.3077852833222448 0.5295258598605458 -1.3377159996725765 Q 0.5408903756335998 -1.3676467160229082 0.5444618780510344 -1.3871721960549652 L 0.5049026471641913 -1.3951763981789398 M 1.0493340331140226 -1.6830456761907855 L 1.2084126026382074 -1.5207311398173013 L 1.2998845438064908 -1.553009367446868 L 0.7595277173986863 -2.1046346933289253 L 0.712377232260396 -2.0879964316642003 L 0.6661820235478685 -1.3293911306729627 L 0.7095604698750956 -1.3446983314045098 L 0.7239956856598192 -1.5682416707041822 L 1.0493340331140226 -1.6830456761907855 M 1.014556393857688 -1.7184930429160623 L 0.726938434514117 -1.616999646761239 L 0.7505899480921461 -1.9827121101877243 L 0.7543619869032092 -1.9840431711209023 L 1.014556393857688 -1.7184930429160623 M 1.9372304369539184 -2.3601395397803766 L 2.008613197766239 -1.8299230731756406 L 2.0046489625019044 -1.8293893702910624 L 1.3816274501094412 -2.297447267453591 L 1.3766721560290232 -2.2967801388478684 L 1.4716712694839247 -1.5911462617963317 L 1.517259975023771 -1.59728384496898 L 1.4458772142114504 -2.1275003115737157 L 1.449841449475785 -2.128034014458294 L 2.072862961868248 -1.6599761172957657 L 2.0778182559486664 -1.6606432459014882 L 1.982819142493765 -2.366277122953025 L 1.9372304369539184 -2.3601395397803766 M 2.8419108008492224 -2.336359275874832 L 2.7543666466524357 -1.6418551210521493 L 2.8446521867793844 -1.630474381006567 L 2.932196340976171 -2.32497853582925 L 2.8419108008492224 -2.336359275874832 M 3.8877649911718155 -2.097793165970672 L 3.7346008872083765 -1.5851863407555988 L 3.730768312814245 -1.5863314929347647 L 3.3555981761294515 -2.269325906191501 L 3.3508074581367873 -2.2707573464154587 L 3.1469703702452567 -1.588559104260071 L 3.1910449757777677 -1.5753898541996632 L 3.344209079741207 -2.0879966794147364 L 3.3480416541353386 -2.0868515272355705 L 3.723211790820132 -1.4038571139788343 L 3.7280025088127964 -1.4024256737548768 L 3.9318395967043265 -2.084623915910264 L 3.8877649911718155 -2.097793165970672 M 3.9814950706416665 -1.4993622076043023 Q 3.963323670513475 -1.4603391347193901 3.965252563685586 -1.4198233430927838 Q 3.9671814568576975 -1.3793075514661775 3.987269341770437 -1.3411371849532328 Q 4.007357226683176 -1.302966818440288 4.043621148582715 -1.2687443409077628 Q 4.079885070482253 -1.2345218633752377 4.1303837278089155 -1.208085418678488 Q 4.181768326492186 -1.1811851767063564 4.2294577614298055 -1.1720217823936268 Q 4.277147196367425 -1.1628583880808971 4.318441990295414 -1.1705875532651162 Q 4.3597367842234025 -1.178316718449335 4.392844227831467 -1.202748197686967 Q 4.425951671439531 -1.2271796769245988 4.446822548831702 -1.267047037971964 Q 4.47557797990536 -1.3219754020816672 4.466433790228081 -1.3713478012045166 Q 4.457289600550801 -1.420720200327366 4.428383955266136 -1.4657642195827243 Q 4.39947830998147 -1.5108082388380826 4.359542857003196 -1.5520321347653245 Q 4.319607404024922 -1.5932560306925665 4.287687076450276 -1.632541431129972 Q 4.25576674887563 -1.6718268315673774 4.2403612959806996 -1.7092390223760174 Q 4.22495584308577 -1.7466512131846572 4.244899125927177 -1.7847466915188062 Q 4.256030260536335 -1.806009284077401 4.275072387563733 -1.8197441811746646 Q 4.294114514591132 -1.8334790782719286 4.319465170170012 -1.837703325154032 Q 4.344815825748893 -1.8419275720361357 4.375800140563261 -1.8364300966624656 Q 4.40678445537763 -1.8309326212887953 4.441336168285346 -1.8128445275489138 Q 4.498922356464874 -1.7826977046491113 4.52647826311755 -1.7372315413125266 Q 4.554034169770226 -1.6917653779759418 4.533757661375578 -1.6357844597330102 L 4.59400167362493 -1.6042462450070631 Q 4.605846524674399 -1.6398088588538529 4.600923775809385 -1.6756838716568052 Q 4.596001026944371 -1.7115588844597578 4.577158747678234 -1.7445621950824346 Q 4.558316468412096 -1.7775655057051114 4.527305714860974 -1.8056516796024504 Q 4.496294961309852 -1.8337378534997892 4.457313541619095 -1.8541449336165787 Q 4.416560239215122 -1.8754796082841312 4.374228105611306 -1.884095898933169 Q 4.331895972007491 -1.8927121895822072 4.293321481940558 -1.8869451525547403 Q 4.254746991873627 -1.8811781155272733 4.222124172138021 -1.8587504176405485 Q 4.1895013524024165 -1.8363227197538237 4.168630475010246 -1.7964553587064582 Q 4.1412664357627325 -1.7441848186665796 4.151147974547239 -1.69837701156724 Q 4.161029513331746 -1.6525692044679008 4.190208710448257 -1.6102038358794442 Q 4.2193879075647684 -1.5678384672909877 4.258458245783512 -1.5281962086334264 Q 4.297528584002255 -1.4885539499758649 4.327867274307221 -1.4484034347789287 Q 4.358205964612186 -1.4082529195819926 4.3704064897736 -1.3668748192656939 Q 4.382607014935015 -1.325496718949395 4.358489556615173 -1.2794277684057729 Q 4.32834273371537 -1.2218415802262454 4.272346601015038 -1.217293710108627 Q 4.2163504683147055 -1.2127458399910083 4.146361101142665 -1.249385824746153 Q 4.090546795676353 -1.278605053095192 4.064533679169041 -1.3108473819437259 Q 4.038520562661728 -1.3430897107922597 4.031469072863342 -1.3727423075018779 Q 4.024417583064956 -1.4023949042114958 4.029579026815548 -1.4273470483760657 Q 4.03474047056614 -1.4522991925406357 4.041739082891018 -1.4678239928783552 L 3.9814950706416665 -1.4993622076043023 M 4.744258735202643 -0.8279284319752063 L 5.1351906116425665 -1.3409559828758968 L 5.348355547520683 -1.1785222729752776 L 5.381690823806258 -1.2222688083233983 L 4.882980320837679 -1.6022909579789517 L 4.849645044552104 -1.5585444226308307 L 5.062809980430221 -1.3961107127302115 L 4.671878103990298 -0.883083161829521 L 4.744258735202643 -0.8279284319752063 M 5.59701456753125 -1.007299586138359 L 5.098270610527594 -0.5161229729406865 L 5.162123570243292 -0.4512862585302113 L 5.660867527246947 -0.9424628717278836 L 5.59701456753125 -1.007299586138359 M 5.52253440634126 -0.01931959431480401 L 6.041478527469158 -0.4023626717183688 L 6.2006344107934295 -0.1867393779784049 L 6.244885459881855 -0.2194019659740577 L 5.872531956731413 -0.7238639255821075 L 5.828280907642988 -0.6912013375864547 L 5.9874367909672594 -0.4755780438464908 L 5.468492669839361 -0.09253496644292605 L 5.52253440634126 -0.01931959431480401 M 6.3729564221328925 -0.0025241060415457373 L 5.986707924895807 0.1864523432374416 Q 5.9498795798104105 0.20447102793613575 5.908931930929007 0.2334113121621975 Q 5.867984282047603 0.2623515963882593 5.842992961921541 0.3079770708335372 Q 5.81800164179548 0.3536025452788151 5.818330777461068 0.4191246153751852 Q 5.818659913126658 0.4846466854715553 5.8634868848160915 0.5762684220254685 Q 5.891613612150639 0.6337565704514532 5.931332924206573 0.6694304579576298 Q 5.971052236262507 0.7051043454638064 6.017213651272144 0.7198139941444525 Q 6.063375066281782 0.7345236428250985 6.112614961070775 0.729358106921744 Q 6.161854855859769 0.7241925710183893 6.2094622287750365 0.7009001249444676 L 6.619065286310178 0.5004971926858206 L 6.599728161267677 0.4609740906429561 L 6.219767430264684 0.6468741791197273 Q 6.200005879243252 0.6565427416409779 6.17935572194764 0.6655327919003735 Q 6.158705564652027 0.6745228421597691 6.136297486898005 0.6799198831425408 Q 6.113889409143983 0.6853169241253123 6.089513316919227 0.6855538372954249 Q 6.065137224694471 0.6857907504655372 6.0365860713809925 0.6774942666036674 Q 5.985732946808225 0.6622969075835405 5.953380809182938 0.6280282748259522 Q 5.92102867155765 0.593759642068364 5.899494145942138 0.5497452784297194 Q 5.881035981128842 0.5120186810251669 5.878430157553295 0.4771122391627666 Q 5.875824333977748 0.44220579730036647 5.886433970952338 0.4047299970651824 Q 5.894290974699606 0.3752805914325482 5.906982259707498 0.35571196131063015 Q 5.919673544715391 0.3361433311887121 5.934552584251319 0.32218395503903124 Q 5.949431623787248 0.3082245788893504 5.966957190055766 0.2985367242781485 Q 5.984482756324284 0.28884886966694656 6.002447802707404 0.2800592673749006 L 6.4129491125617015 0.07921685500165129 L 6.3729564221328925 -0.0025241060415457373 M 6.1350381453474645 1.2698188793587648 L 6.7559449146989845 1.095177006448921 L 6.828509289799509 1.3531661757298628 L 6.881454828271344 1.3382742330786357 L 6.711686682047356 0.734695094499716 L 6.658741143575521 0.749587037150943 L 6.731305518676045 1.0075762064318847 L 6.110398749324525 1.1822180793417287 L 6.1350381453474645 1.2698188793587648 M 6.924069020576169 1.6162227725387015 L 6.228163953675354 1.691827916952113 L 6.276983275496586 2.1411837601509247 L 6.331661530753078 2.135243355947014 L 6.29267087770559 1.776355171445308 L 6.58395685570836 1.7447090181408371 L 6.617439133948585 2.052895547768341 L 6.663170038344925 2.047927209706888 L 6.629687760104699 1.7397406800793844 L 6.87921943409342 1.7126308354397182 L 6.918210087140908 2.071519019941424 L 6.9728883423974 2.065578615737513 L 6.924069020576169 1.6162227725387015" fill="#69c52f" fill-rule="nonzero"></path></g><g><path d=" M -1.6707054634643996 4.694385100462579 Q -1.6759544784060798 4.60337027836122 -1.632730745179561 4.520640544371785 Q -1.5895070119530421 4.437910810382349 -1.5033601509015067 4.3814509278907305 Q -1.4172132898499714 4.324991045399111 -1.3241075245192064 4.318371644960061 Q -1.2310017591884412 4.311752244521012 -1.1496424106963752 4.352885034518124 Q -1.0682830622043094 4.394017824515237 -1.0151121049063767 4.475146421816198 Q -0.961392993409496 4.55711139640892 -0.9561439784678157 4.64812621851028 Q -0.9508949635261355 4.7391410406116385 -0.9943927738521281 4.821452585955192 Q -1.037890584178121 4.903764131298746 -1.1240374452296562 4.9602240137903655 Q -1.2101843062811914 5.016683896281985 -1.3030159945124828 5.023721485366916 Q -1.3958476827437742 5.030759074451847 -1.47720703123584 4.989626284454734 Q -1.558566379727906 4.9484934944576215 -1.6122854912247864 4.866528519864898 Q -1.6654564485227192 4.785399922563938 -1.6707054634643996 4.694385100462579 M -1.4544153060711396 4.930450383413713 Q -1.390320163232929 4.962572224340867 -1.3141311448768422 4.955681398415343 Q -1.2379421265207555 4.948790572489818 -1.163504547553895 4.9000048487834675 Q -1.0890669685870344 4.851219125077116 -1.0527632412010677 4.784383211244167 Q -1.0164595138151011 4.717547297411218 -1.0203354916464131 4.645958354159825 Q -1.024211469477725 4.574369410908432 -1.0669674969956504 4.509131982150959 Q -1.1097235245135755 4.443894553393485 -1.173818667351786 4.411772712466331 Q -1.2379138101899965 4.379650871539177 -1.313684639900202 4.386267620365228 Q -1.3894554696104073 4.392884369191278 -1.463893048577268 4.4416700928976285 Q -1.5383306275441286 4.49045581660398 -1.5750525435759766 4.5575658075364025 Q -1.6117744596078245 4.624675798468826 -1.6078984817765125 4.696264741720219 Q -1.6040225039452005 4.7678536849716115 -1.5612664764272752 4.833091113729085 Q -1.51851044890935 4.898328542486558 -1.4544153060711396 4.930450383413713 M -0.46818252494691126 5.158444532720954 L -0.5107137555735306 5.197879218232383 L -0.7201255338066369 4.972023717663439 L -0.9115160716264239 5.149479802464869 L -0.7347398951958797 5.340137043204887 L -0.777271125822499 5.379571728716316 L -0.9540473022530434 5.188914487976299 L -1.1901689619387577 5.4078449834018185 L -1.2377625479008272 5.356514187817968 L -0.7251878891420871 4.881258236568159 L -0.46818252494691126 5.158444532720954 M 0.42769078077847245 5.8324507873832525 L 0.05315588937580962 6.411953690846208 L -0.005634260250866996 6.373957397515503 L 0.2934508486808247 5.91119493402552 L -0.21223964322461641 6.240427566667598 L -0.25507246652405224 6.212744552955227 L -0.16367834894698718 5.6181319771781 L -0.46167784949780155 6.079214722107321 L -0.5204679991244783 6.041218428776616 L -0.14593310772181534 5.461715525313661 L -0.0837835209736143 5.50188303540612 L -0.18413799899416983 6.149047603921132 L 0.3647013347498904 5.791740473100354 L 0.42769078077847245 5.8324507873832525 M 0.7809634769971199 6.5470933102486475 L 0.48558378833225396 6.429301801538355 L 0.36743425545657665 6.560898487975588 L 0.2986981014905387 6.533487885319733 L 0.7911445216780942 5.98702514803158 L 0.8645250103715671 6.016287818434451 L 0.8448718654368944 6.751291052368954 L 0.7761357114708565 6.723880449713099 L 0.7809634769971199 6.5470933102486475 M 0.7829412570072921 6.48544034287293 L 0.7947739402045849 6.08321156766117 L 0.5265739800528803 6.383206203237582 L 0.7829412570072921 6.48544034287293 M 1.6367617347674228 6.226312956994196 L 1.6237814494020364 6.28284181857687 L 1.4347021537634368 6.239425002009888 L 1.2912476206735615 6.864166386052889 L 1.223023132556541 6.84850052440501 L 1.3664776656464162 6.223759140362008 L 1.1764237344632875 6.1801185257714835 L 1.1894040198286742 6.12358966418881 L 1.6367617347674228 6.226312956994196 M 2.289850872165528 6.284341468694802 L 2.2419666452671754 6.9816994118017455 L 2.17213108587163 6.976904138721796 L 2.1945318615451086 6.65067231125975 L 1.816422189960657 6.62470933272688 L 1.7940214142871787 6.950941160188926 L 1.7241858548916333 6.946145887108977 L 1.7720700817899864 6.248787944002033 L 1.8419056411855315 6.2535832170819825 L 1.820395416226901 6.5668455835134285 L 2.1985050878113523 6.592808562046297 L 2.220015312769983 6.279546195614852 L 2.289850872165528 6.284341468694802 M 2.5503756840901532 6.326608624269143 L 2.5729106334551113 6.586633961605947 L 2.8369210334330925 6.56375364903233 L 2.8419287999586387 6.621537057329398 L 2.5779183999806574 6.644417369903015 L 2.600798712554274 6.908427769880996 L 2.894697082341083 6.882957233242442 L 2.8997048488666293 6.940740641539509 L 2.5360678828592214 6.972255034329585 L 2.475629321344008 6.274869072123597 L 2.8392662873514163 6.243354679333521 L 2.8442740538769624 6.301138087630589 L 2.5503756840901532 6.326608624269143 M 3.6656838766334117 6.060352262830857 L 3.8443968899723604 6.7268068065645705 L 3.77678555944865 6.744937112265624 L 3.634074153144649 6.212739353428991 L 3.539180026465326 6.808652186586466 L 3.4899203427980514 6.821861409311518 L 3.110121412245042 6.355310477096406 L 3.2523148098147274 6.885576483632361 L 3.1847034792910174 6.903706789333413 L 3.0059904659520686 6.2372522455996995 L 3.0774653010771336 6.218085922430015 L 3.490238844777993 6.726525694301409 L 3.593243165358008 6.079777590367699 L 3.6656838766334117 6.060352262830857 M 4.432720714691538 6.277538870251298 L 4.147256947470295 6.417661807716424 L 4.165644110422228 6.5935564132010125 L 4.099215435031121 6.626163637642582 L 4.024084723680431 5.894398390987661 L 4.09500182308445 5.859587975705444 L 4.627054098949648 6.367068394782539 L 4.56062542355854 6.3996756192241095 L 4.432720714691538 6.277538870251298 M 4.388312320085804 6.234726553232227 L 4.09787058977653 5.95620976505788 L 4.140551314573027 6.356342687635921 L 4.388312320085804 6.234726553232227 M 4.768671073437009 5.427581195131221 L 4.801899955611905 5.475118984198518 L 4.642894247352324 5.58626386595593 L 5.010130686561092 6.111638396854855 L 4.952757492859181 6.1517422201693845 L 4.585521053650414 5.62636768927046 L 4.425695728337948 5.738085482789508 L 4.392466846163051 5.690547693722211 L 4.768671073437009 5.427581195131221 M 4.923151799052932 5.29080962448781 L 5.3790461123814906 5.820678830117541 L 5.325983387926438 5.8663334823822035 L 4.87008907459788 5.336464276752473 L 4.923151799052932 5.29080962448781 M 5.198622321030724 5.274054900048206 Q 5.167744374237033 5.186226644903258 5.1856982957350395 5.09772858445647 Q 5.203652217233046 5.0092305240096815 5.267545094224633 4.937580679140777 Q 5.345414538058128 4.850257430706801 5.442410596589603 4.824875062232629 Q 5.539406655121079 4.799492693758458 5.640079193219408 4.838351927832748 L 5.5855040274557615 4.899552836991603 Q 5.512546472294931 4.874689306571442 5.441760995943485 4.893967956360756 Q 5.37097551959204 4.91324660615007 5.313072599818415 4.978179278062514 Q 5.261825188064747 5.035648424467781 5.247762505567851 5.105508935208768 Q 5.233699823070955 5.175369445949754 5.260784342174554 5.2464164643595845 Q 5.287868861278153 5.317463482769415 5.354294238292033 5.376697504147032 Q 5.420719615305913 5.435931525524648 5.494019514273851 5.4544010899832385 Q 5.56731941324179 5.472870654441828 5.635119479390363 5.4509298014445315 Q 5.702919545538938 5.428988948447235 5.754166957292606 5.371519802041968 Q 5.812069877066231 5.3065871301295235 5.823520325635615 5.234397191581552 Q 5.834970774204999 5.16220725303358 5.802692619714627 5.093228120372349 L 5.857267785478274 5.032027211213494 Q 5.906612110074212 5.126943688340337 5.891755232996051 5.226242596710391 Q 5.876898355917889 5.325541505080446 5.7996944628863885 5.4121184009637044 Q 5.735801585894802 5.483768245832609 5.649929582281481 5.51170118329779 Q 5.56405757866816 5.53963412076297 5.4736532359702155 5.519310370583618 Q 5.383248893272271 5.498986620404266 5.3063745805483435 5.430434887798709 Q 5.229500267824415 5.361883155193153 5.198622321030724 5.274054900048206 M 6.206212929077365 4.844709280147521 Q 6.158216925828034 4.876781599553673 6.105868881246155 4.879728161695166 Q 6.053520836664277 4.882674723836658 6.007368160877512 4.85654178451247 L 6.046232001633255 4.793568759480221 Q 6.09225826488222 4.81609836425565 6.146028739125076 4.802278592198977 Q 6.199799213367931 4.788458820142304 6.240238615235394 4.722932834635775 Q 6.2775268948794185 4.662512770077806 6.268261137821125 4.60802748999101 Q 6.258995380762832 4.553542209904213 6.211340118576265 4.524131735818786 Q 6.17304571146206 4.500498319142996 6.137564271924642 4.505628372588385 Q 6.102082832387224 4.510758426033773 6.07273815098681 4.53260195307288 Q 6.043393469586396 4.554445480111987 5.998266458155848 4.597101697001757 Q 5.945334615878621 4.6466922210274095 5.908484184506108 4.672129314172258 Q 5.871633753133595 4.697566407317107 5.824065829712756 4.702287917820039 Q 5.776497906291919 4.70700942832297 5.721183762682511 4.672872270902385 Q 5.675230474145465 4.644512170891437 5.653768771135874 4.598364090715463 Q 5.632307068126283 4.552216010539489 5.638667923231269 4.496211193582968 Q 5.645028778336255 4.440206376626448 5.679691122794081 4.384041246192281 Q 5.730634265406339 4.301495524190549 5.802304768298211 4.2758081923862115 Q 5.8739752711900834 4.250120860581874 5.9425259663822505 4.281851006952017 L 5.902611751552027 4.346526005633786 Q 5.862343008826663 4.329899870805796 5.812827468707608 4.346345578048668 Q 5.7633119285885535 4.362791285291539 5.7275992100562485 4.420658389375228 Q 5.694512426710142 4.474270559335115 5.700962629775535 4.527605771722572 Q 5.707412832840928 4.58094098411003 5.756770068677016 4.611401832269937 Q 5.79421348896646 4.634510061908487 5.829269435091499 4.629117414944479 Q 5.864325381216537 4.62372476798047 5.8943581495479505 4.601718341047603 Q 5.924390917879364 4.5797119141147355 5.968992742272674 4.537906684049726 Q 6.02087421047542 4.490018133673594 6.058675322297553 4.463992647222605 Q 6.096476434119686 4.437967160771616 6.144044357540524 4.433245650268684 Q 6.191612280961362 4.428524139765752 6.2460754377460095 4.462136110149098 Q 6.287773792159255 4.487870274973847 6.311562349480466 4.53310416205616 Q 6.3353509068016765 4.578338049138474 6.331543012170971 4.635918427206714 Q 6.327735117540265 4.693498805274953 6.2904468378962415 4.753918869832922 Q 6.254208932326696 4.8126369607413695 6.206212929077365 4.844709280147521" fill="#ac63b8" fill-rule="nonzero"></path></g><g transform="matrix(1,0,0,1,0,0)" clip-path="url(#SvgjsClipPath136579)"><g clip-path="url(#abb292e20-7e95-4507-b586-827189584a9f99300d83-eb05-48ae-9265-033d67eb5353)"><path d=" M 1.048948581808882 2.0837028540953795 C 1.6204402102584685 2.0837028540953795 2.08372677858306 1.6204162857707878 2.08372677858306 1.0489246573212012 C 2.08372677858306 0.47743302887161465 1.6204402102584685 0.014146460547022888 1.048948581808882 0.014146460547022888 C 0.4774569533592952 0.014146460547022888 0.01417038503470342 0.47743302887161465 0.01417038503470342 1.0489246573212012 C 0.01417038503470342 1.6204162857707878 0.4774569533592952 2.0837028540953795 1.048948581808882 2.0837028540953795" fill="#42c2f3" transform="matrix(1,0,0,1,0,0)" fill-rule="nonzero"></path></g><g clip-path="url(#abb292e20-7e95-4507-b586-827189584a9f99300d83-eb05-48ae-9265-033d67eb5353)"><path d=" M 1.048948581808882 2.0837028540953795 C 1.6204402102584685 2.0837028540953795 2.08372677858306 1.6204162857707878 2.08372677858306 1.0489246573212012 C 2.08372677858306 0.47743302887161465 1.6204402102584685 0.014146460547022888 1.048948581808882 0.014146460547022888 C 0.4774569533592952 0.014146460547022888 0.01417038503470342 0.47743302887161465 0.01417038503470342 1.0489246573212012 C 0.01417038503470342 1.6204162857707878 0.4774569533592952 2.0837028540953795 1.048948581808882 2.0837028540953795 Z" fill="none" transform="matrix(1,0,0,1,0,0)" fill-rule="nonzero" stroke-dasharray="none" stroke-miterlimit="4" stroke-linejoin="miter" stroke-linecap="butt" stroke-width="0.028340770069406728" stroke="#ffffff"></path></g><g clip-path="url(#SvgjsClipPath13656699300d83-eb05-48ae-9265-033d67eb5353)"><path d=" M 1.048965374607353 0.33902730952355176 L 1.048965374607353 1.75884320846069" fill="none" transform="matrix(1,0,0,1,0,0)" fill-rule="nonzero" stroke-dasharray="none" stroke-miterlimit="4" stroke-linejoin="miter" stroke-linecap="butt" stroke-width="0.0601674548573505" stroke="#ffffff"></path></g><g clip-path="url(#SvgjsClipPath13656699300d83-eb05-48ae-9265-033d67eb5353)"><path d=" M 0.3390273095235518 1.048944118976662 L 1.7588432084606902 1.048944118976662" fill="none" transform="matrix(1,0,0,1,0,0)" fill-rule="nonzero" stroke-dasharray="none" stroke-miterlimit="4" stroke-linejoin="miter" stroke-linecap="butt" stroke-width="0.0601674548573505" stroke="#ffffff"></path></g><g clip-path="url(#bbb292e20-7e95-4507-b586-827189584a9f99300d83-eb05-48ae-9265-033d67eb5353)"><path d=" M 3.5576735483527653 2.0837028540953795 C 4.129165176802352 2.0837028540953795 4.592451745126944 1.6204162857707878 4.592451745126944 1.0489246573212012 C 4.592451745126944 0.47743302887161465 4.129165176802352 0.014146460547022888 3.5576735483527653 0.014146460547022888 C 2.9861819199031787 0.014146460547022888 2.522895351578587 0.47743302887161465 2.522895351578587 1.0489246573212012 C 2.522895351578587 1.6204162857707878 2.9861819199031787 2.0837028540953795 3.5576735483527653 2.0837028540953795" fill="#f04334" transform="matrix(1,0,0,1,0,0)" fill-rule="nonzero"></path></g><g clip-path="url(#bbb292e20-7e95-4507-b586-827189584a9f99300d83-eb05-48ae-9265-033d67eb5353)"><path d=" M 3.5576735483527653 2.0837028540953795 C 4.129165176802352 2.0837028540953795 4.592451745126944 1.6204162857707878 4.592451745126944 1.0489246573212012 C 4.592451745126944 0.47743302887161465 4.129165176802352 0.014146460547022888 3.5576735483527653 0.014146460547022888 C 2.9861819199031787 0.014146460547022888 2.522895351578587 0.47743302887161465 2.522895351578587 1.0489246573212012 C 2.522895351578587 1.6204162857707878 2.9861819199031787 2.0837028540953795 3.5576735483527653 2.0837028540953795 Z" fill="none" transform="matrix(1,0,0,1,0,0)" fill-rule="nonzero" stroke-dasharray="none" stroke-miterlimit="4" stroke-linejoin="miter" stroke-linecap="butt" stroke-width="0.028340770069406728" stroke="#ffffff"></path></g><g clip-path="url(#SvgjsClipPath13656699300d83-eb05-48ae-9265-033d67eb5353)"><path d=" M 4.056700884294574 0.5469498889442027 L 3.0527574453559096 1.5508933278828665" fill="none" transform="matrix(1,0,0,1,0,0)" fill-rule="nonzero" stroke-dasharray="none" stroke-miterlimit="4" stroke-linejoin="miter" stroke-linecap="butt" stroke-width="0.0601674548573505" stroke="#ffffff"></path></g><g clip-path="url(#SvgjsClipPath13656699300d83-eb05-48ae-9265-033d67eb5353)"><path d=" M 3.052733679860346 0.5469498889442027 L 4.05667711879901 1.5508933278828665" fill="none" transform="matrix(1,0,0,1,0,0)" fill-rule="nonzero" stroke-dasharray="none" stroke-miterlimit="4" stroke-linejoin="miter" stroke-linecap="butt" stroke-width="0.0601674548573505" stroke="#ffffff"></path></g><g clip-path="url(#cbb292e20-7e95-4507-b586-827189584a9f99300d83-eb05-48ae-9265-033d67eb5353)"><path d=" M 3.5576735483527653 4.586419577384548 C 4.129165176802352 4.586419577384548 4.592451745126944 4.123133009059957 4.592451745126944 3.5516413806103704 C 4.592451745126944 2.980149752160784 4.129165176802352 2.516863183836192 3.5576735483527653 2.516863183836192 C 2.9861819199031787 2.516863183836192 2.522895351578587 2.980149752160784 2.522895351578587 3.5516413806103704 C 2.522895351578587 4.123133009059957 2.9861819199031787 4.586419577384548 3.5576735483527653 4.586419577384548" fill="#ac63b8" transform="matrix(1,0,0,1,0,0)" fill-rule="nonzero"></path></g><g clip-path="url(#cbb292e20-7e95-4507-b586-827189584a9f99300d83-eb05-48ae-9265-033d67eb5353)"><path d=" M 3.5576735483527653 4.586419577384548 C 4.129165176802352 4.586419577384548 4.592451745126944 4.123133009059957 4.592451745126944 3.5516413806103704 C 4.592451745126944 2.980149752160784 4.129165176802352 2.516863183836192 3.5576735483527653 2.516863183836192 C 2.9861819199031787 2.516863183836192 2.522895351578587 2.980149752160784 2.522895351578587 3.5516413806103704 C 2.522895351578587 4.123133009059957 2.9861819199031787 4.586419577384548 3.5576735483527653 4.586419577384548 Z" fill="none" transform="matrix(1,0,0,1,0,0)" fill-rule="nonzero" stroke-dasharray="none" stroke-miterlimit="4" stroke-linejoin="miter" stroke-linecap="butt" stroke-width="0.028340770069406728" stroke="#ffffff"></path></g><g clip-path="url(#cbb292e20-7e95-4507-b586-827189584a9f99300d83-eb05-48ae-9265-033d67eb5353)"><path d=" M 3.5576735483527653 3.2356984758766245 C 3.6107031176179727 3.2356984758766245 3.653692077347915 3.1927095161466816 3.653692077347915 3.1396799468814747 C 3.653692077347915 3.0866503776162673 3.6107031176179727 3.0436614178863244 3.5576735483527653 3.0436614178863244 C 3.504643979087558 3.0436614178863244 3.4616550193576154 3.0866503776162673 3.4616550193576154 3.1396799468814747 C 3.4616550193576154 3.1927095161466816 3.504643979087558 3.2356984758766245 3.5576735483527653 3.2356984758766245" fill="#ffffff" transform="matrix(1,0,0,1,0,0)" fill-rule="nonzero"></path></g><g clip-path="url(#cbb292e20-7e95-4507-b586-827189584a9f99300d83-eb05-48ae-9265-033d67eb5353)"><path d=" M 3.5576735483527653 4.059649684104486 C 3.6107031176179727 4.059649684104486 3.653692077347915 4.016660724374543 3.653692077347915 3.963631155109336 C 3.653692077347915 3.910601585844129 3.6107031176179727 3.867612626114186 3.5576735483527653 3.867612626114186 C 3.504643979087558 3.867612626114186 3.4616550193576154 3.910601585844129 3.4616550193576154 3.963631155109336 C 3.4616550193576154 4.016660724374543 3.504643979087558 4.059649684104486 3.5576735483527653 4.059649684104486" fill="#ffffff" transform="matrix(1,0,0,1,0,0)" fill-rule="nonzero"></path></g><g clip-path="url(#SvgjsClipPath13656699300d83-eb05-48ae-9265-033d67eb5353)"><path d=" M 2.8477656331057624 3.554791676784878 L 4.267581532042901 3.554791676784878" fill="none" transform="matrix(1,0,0,1,0,0)" fill-rule="nonzero" stroke-dasharray="none" stroke-miterlimit="4" stroke-linejoin="miter" stroke-linecap="butt" stroke-width="0.0601674548573505" stroke="#ffffff"></path></g><g clip-path="url(#dbb292e20-7e95-4507-b586-827189584a9f99300d83-eb05-48ae-9265-033d67eb5353)"><path d=" M 1.048948581808882 4.586419577384548 C 1.6204402102584685 4.586419577384548 2.08372677858306 4.123133009059957 2.08372677858306 3.5516413806103704 C 2.08372677858306 2.980149752160784 1.6204402102584685 2.516863183836192 1.048948581808882 2.516863183836192 C 0.4774569533592952 2.516863183836192 0.01417038503470342 2.980149752160784 0.01417038503470342 3.5516413806103704 C 0.01417038503470342 4.123133009059957 0.4774569533592952 4.586419577384548 1.048948581808882 4.586419577384548" fill="#69c52f" transform="matrix(1,0,0,1,0,0)" fill-rule="nonzero"></path></g><g clip-path="url(#dbb292e20-7e95-4507-b586-827189584a9f99300d83-eb05-48ae-9265-033d67eb5353)"><path d=" M 1.048948581808882 4.586419577384548 C 1.6204402102584685 4.586419577384548 2.08372677858306 4.123133009059957 2.08372677858306 3.5516413806103704 C 2.08372677858306 2.980149752160784 1.6204402102584685 2.516863183836192 1.048948581808882 2.516863183836192 C 0.4774569533592952 2.516863183836192 0.01417038503470342 2.980149752160784 0.01417038503470342 3.5516413806103704 C 0.01417038503470342 4.123133009059957 0.4774569533592952 4.586419577384548 1.048948581808882 4.586419577384548 Z" fill="none" transform="matrix(1,0,0,1,0,0)" fill-rule="nonzero" stroke-dasharray="none" stroke-miterlimit="4" stroke-linejoin="miter" stroke-linecap="butt" stroke-width="0.028340770069406728" stroke="#ffffff"></path></g><g clip-path="url(#SvgjsClipPath13656699300d83-eb05-48ae-9265-033d67eb5353)"><path d=" M 1.55091709337843 3.049672869040822 L 0.5469736544397661 4.053616307979486" fill="none" transform="matrix(1,0,0,1,0,0)" fill-rule="nonzero" stroke-dasharray="none" stroke-miterlimit="4" stroke-linejoin="miter" stroke-linecap="butt" stroke-width="0.0601674548573505" stroke="#ffffff"></path></g><g clip-path="url(#ebb292e20-7e95-4507-b586-827189584a9f99300d83-eb05-48ae-9265-033d67eb5353)"><path d=" M 0.7155761034824505 3.316498011344503 C 0.7698343684936196 3.316498011344503 0.8138193829280489 3.2725129969100735 0.8138193829280489 3.2182547318989045 C 0.8138193829280489 3.1639964668877356 0.7698343684936196 3.120011452453306 0.7155761034824505 3.120011452453306 C 0.6613178384712816 3.120011452453306 0.6173328240368521 3.1639964668877356 0.6173328240368521 3.2182547318989045 C 0.6173328240368521 3.2725129969100735 0.6613178384712814 3.316498011344503 0.7155761034824505 3.316498011344503 Z" fill="none" transform="matrix(1,0,0,1,0,0)" fill-rule="nonzero" stroke-dasharray="none" stroke-miterlimit="4" stroke-linejoin="miter" stroke-linecap="butt" stroke-width="0.0601674548573505" stroke="#ffffff"></path></g><g clip-path="url(#ebb292e20-7e95-4507-b586-827189584a9f99300d83-eb05-48ae-9265-033d67eb5353)"><path d=" M 1.3848717294415598 3.985821978073681 C 1.439129994452729 3.985821978073681 1.4831150088871583 3.9418369636392523 1.4831150088871583 3.887578698628083 C 1.4831150088871583 3.833320433616914 1.439129994452729 3.7893354191824846 1.3848717294415598 3.7893354191824846 C 1.3306134644303909 3.7893354191824846 1.2866284499959613 3.833320433616914 1.2866284499959613 3.887578698628083 C 1.2866284499959613 3.9418369636392523 1.3306134644303909 3.985821978073681 1.3848717294415598 3.985821978073681 Z" fill="none" transform="matrix(1,0,0,1,0,0)" fill-rule="nonzero" stroke-dasharray="none" stroke-miterlimit="4" stroke-linejoin="miter" stroke-linecap="butt" stroke-width="0.0601674548573505" stroke="#ffffff"></path></g></g><g transform="matrix(-0.31820618075695134,-0.9480215327343965,0.9480215327343965,-0.31820618075695134,-5.614805054729737,2.4920645952283014)"><g clip-path="url(#SvgjsClipPath136580)"><path d=" M -1.9114873671807064 3.450785525036119 C -1.9062763430735636 3.450785525036119 -1.8988600409307064 3.4469770303932616 -1.8928462682521352 3.4431685357504045 C -1.7808012680735636 3.3710123857504044 -1.7090442118235636 3.2864273161075475 -1.7090442118235636 3.200640404143262 C -1.7090442118235636 3.127079444143262 -1.7597564845021352 3.075767390571833 -1.8236958643235637 3.075767390571833 C -1.8635824339664209 3.075767390571833 -1.8934483296807065 3.0978153818039758 -1.9114873671807064 3.1308877107325475 C -1.9291250303949923 3.098015840893262 -1.959191613252135 3.075767390571833 -1.9990781828949922 3.075767390571833 C -2.0630180188235636 3.075767390571833 -2.1139291542164207 3.127079444143262 -2.1139291542164207 3.200640404143262 C -2.1139291542164207 3.2864273161075475 -2.042172554073564 3.3710123857504044 -1.930128466109278 3.4431685357504045 C -1.9239140062878493 3.4469770303932616 -1.9164977041449922 3.450785525036119 -1.9114873671807064 3.450785525036119 Z" fill="#69c52f" transform="matrix(1,0,0,1,0,0)" fill-rule="nonzero"></path></g></g><g transform="matrix(0.31820618075695134,-0.9480215327343965,-0.9480215327343965,-0.31820618075695134,7.539208102372568,10.48312762463884)"><g clip-path="url(#SvgjsClipPath136581)"><path d=" M 6.517712554430527 3.450785525036119 C 6.52292357853767 3.450785525036119 6.530339880680527 3.4469770303932616 6.5363536533590985 3.4431685357504045 C 6.6483986535376705 3.3710123857504044 6.7201557097876705 3.2864273161075475 6.7201557097876705 3.200640404143262 C 6.7201557097876705 3.127079444143262 6.6694434371090985 3.075767390571833 6.60550405728767 3.075767390571833 C 6.565617487644813 3.075767390571833 6.535751591930527 3.0978153818039758 6.517712554430527 3.1308877107325475 C 6.500074891216242 3.098015840893262 6.470008308359098 3.075767390571833 6.430121738716242 3.075767390571833 C 6.36618190278767 3.075767390571833 6.3152707673948125 3.127079444143262 6.3152707673948125 3.200640404143262 C 6.3152707673948125 3.2864273161075475 6.38702736753767 3.3710123857504044 6.499071455501956 3.4431685357504045 C 6.505285915323384 3.4469770303932616 6.5127022174662414 3.450785525036119 6.517712554430527 3.450785525036119 Z" fill="#69c52f" transform="matrix(1,0,0,1,0,0)" fill-rule="nonzero"></path></g></g></g><defs><clipPath id="SvgjsClipPath136579"><path d=" M 0 0 h 4.606626561535534 v 4.600589962419252 h -4.606626561535534 Z"></path></clipPath><clipPath id="abb292e20-7e95-4507-b586-827189584a9f99300d83-eb05-48ae-9265-033d67eb5353"><path d=" M 0 4.600589962419252 L 4.6066221301616475 4.600589962419252 L 4.6066221301616475 0.000004416282389057751 L 0 0.000004416282389057751 Z"></path></clipPath><clipPath id="SvgjsClipPath13656699300d83-eb05-48ae-9265-033d67eb5353"><path d=" M 0 0 L 4.606626561535534 0 L 4.606626561535534 4.600589962419252 L 0 4.600589962419252 Z"></path></clipPath><clipPath id="bbb292e20-7e95-4507-b586-827189584a9f99300d83-eb05-48ae-9265-033d67eb5353"><path d=" M 0 4.600589962419252 L 4.6066221301616475 4.600589962419252 L 4.6066221301616475 0.000004416282389057751 L 0 0.000004416282389057751 Z"></path></clipPath><clipPath id="cbb292e20-7e95-4507-b586-827189584a9f99300d83-eb05-48ae-9265-033d67eb5353"><path d=" M 0 4.600589962419252 L 4.6066221301616475 4.600589962419252 L 4.6066221301616475 0.000004416282389057751 L 0 0.000004416282389057751 Z"></path></clipPath><clipPath id="dbb292e20-7e95-4507-b586-827189584a9f99300d83-eb05-48ae-9265-033d67eb5353"><path d=" M 0 4.600589962419252 L 4.6066221301616475 4.600589962419252 L 4.6066221301616475 0.000004416282389057751 L 0 0.000004416282389057751 Z"></path></clipPath><clipPath id="ebb292e20-7e95-4507-b586-827189584a9f99300d83-eb05-48ae-9265-033d67eb5353"><path d=" M 0 4.600589962419252 L 4.6066221301616475 4.600589962419252 L 4.6066221301616475 0.000004416282389057751 L 0 0.000004416282389057751 Z"></path></clipPath><clipPath id="SvgjsClipPath136580"><path d=" M -2.2305616800378494 2.945772293786119 h 0.6385500000000001 v 0.6385500000000001 h -0.6385500000000001 Z"></path></clipPath><clipPath id="SvgjsClipPath136581"><path d=" M 6.198638241573384 2.945772293786119 h 0.6385500000000001 v 0.6385500000000001 h -0.6385500000000001 Z"></path></clipPath></defs></svg>